<svg width="252" height="176" viewBox="0 0 252 176" fill="none" xmlns="http://www.w3.org/2000/svg">
<path d="M244.108 84.1276L250.666 92.6073L229.502 104.609L222.917 96.1292L222.293 84.9675L228.282 82.746L243.539 74.0767L244.108 84.1276Z" fill="#FBFBF9"/>
<path d="M250.666 92.6074L248.2 102.387L227.036 114.389L229.502 104.609L250.666 92.6074Z" fill="#FBFBF9"/>
<path d="M245.734 57.8759L249.446 70.7444L228.282 82.746L224.543 69.8775L245.734 57.8759Z" fill="#ECECEC"/>
<path d="M245.734 57.8758L224.543 69.8774L216.847 66.0846L210.858 54.2997L212.782 46.7953L233.973 34.7938L232.022 42.2981L238.011 54.083L245.734 57.8758Z" fill="#FBFBF9"/>
<path d="M236.737 108.998L238.417 114.687L217.253 126.689L215.573 120.999L215.546 120.945L214.326 116.746L219.34 110.488L227.036 114.389L236.71 108.889L236.737 108.944L236.764 108.998H236.737Z" fill="#ECECEC"/>
<path d="M225.491 23.7406L233.973 34.794L212.781 46.7956L204.327 35.7422L225.491 23.7406Z" fill="#ECECEC"/>
<path d="M182.377 43.3006C175.359 39.9954 168.719 40.5372 164.682 45.6034C164.058 46.3619 163.544 47.2018 163.083 48.1229C162.27 49.7484 161.701 51.5906 161.403 53.5683C159.858 63.1316 163.76 76.3524 171.998 87.1348C177.093 93.7723 182.946 98.2966 188.447 100.383C190.371 101.114 192.241 101.548 194.03 101.656C198.122 101.927 201.753 100.545 204.327 97.2942C206.332 94.7747 207.471 91.4424 207.823 87.5954C208.69 78.2217 204.761 65.895 196.983 55.7627C192.458 49.8568 187.309 45.6034 182.377 43.2735V43.3006ZM222.917 96.1021L229.475 104.582L227.036 114.362L219.313 110.434L214.326 116.719L215.546 120.918V120.972L217.226 126.661L209.53 129.614L202.999 121.054L194.301 120.051L192.458 127.637L182.458 122.625L179.64 112.709L170.562 104.826L164.682 107.183L156.2 96.1292L158.151 88.6249L152.135 76.84L144.439 73.0472L140.726 60.1787L146.688 57.9571L146.065 46.7954L139.507 38.3157L141.973 28.5357L149.669 32.4639L154.655 26.1787L151.729 16.2361L159.425 13.2831L165.657 21.4918L165.928 21.844L174.627 22.8464L176.47 15.2608L186.469 20.2727L189.287 30.1882L198.392 38.0719L204.3 35.7149L212.755 46.7683L210.804 54.2727L216.792 66.0575L224.489 69.8504L228.201 82.7189L222.212 84.9404L222.836 96.1021H222.917Z" fill="white"/>
<path d="M225.49 23.7406L204.326 35.7421L198.419 38.0991L189.341 30.2154L186.522 20.2728L207.687 8.27124L210.505 18.1868L219.583 26.0975L225.49 23.7406Z" fill="#FBFBF9"/>
<path d="M186.821 9.43604L197.715 3.25916L207.687 8.2711L186.523 20.2727L176.524 15.2607L186.821 9.43604Z" fill="#ECECEC"/>
<path d="M207.823 87.6226C207.47 91.4696 206.332 94.8019 204.327 97.3214C201.752 100.545 198.121 101.954 194.029 101.683C192.241 101.575 190.371 101.141 188.447 100.41C182.946 98.3238 177.093 93.7995 171.998 87.162C163.76 76.3796 159.858 63.1589 161.403 53.5955C161.728 51.5907 162.27 49.7756 163.083 48.1501C163.516 47.229 164.058 46.4162 164.681 45.6306C168.719 40.5644 175.358 40.0226 182.377 43.3278C181.51 52.7286 185.412 65.0282 193.189 75.1604C197.715 81.0664 202.864 85.3198 207.823 87.6497V87.6226Z" fill="#3C3C3C"/>
<path d="M180.643 1.30859L186.821 9.43608L176.524 15.2608L174.681 22.8735L165.982 21.8711L165.711 21.5189L159.479 13.3102L151.783 16.2632L172.974 4.26158L180.643 1.30859Z" fill="#FBFBF9"/>
<path d="M153.354 21.6002L154.709 26.2057L149.696 32.491L142 28.5627L153.354 21.6002Z" fill="#FBFBF9"/>
<path d="M209.557 130.969C209.151 130.969 208.771 130.779 208.5 130.454L202.322 122.354L195.33 121.541L193.759 127.989C193.677 128.368 193.407 128.693 193.027 128.883C192.675 129.046 192.241 129.046 191.889 128.883L181.917 123.871C181.591 123.708 181.348 123.41 181.239 123.058L178.529 113.495L170.346 106.397L165.197 108.456C164.655 108.673 164.032 108.51 163.652 108.022L155.17 96.9691C154.926 96.644 154.845 96.2376 154.953 95.8312L156.769 88.8145L151.187 77.8695L143.87 74.2663C143.545 74.1037 143.301 73.8057 143.193 73.4535L139.48 60.585C139.29 59.9348 139.643 59.2304 140.293 58.9866L145.333 57.1173L144.791 47.3372L138.477 39.1827C138.234 38.8576 138.152 38.4512 138.234 38.0448L140.7 28.2647C140.808 27.8854 141.079 27.5603 141.431 27.3978C141.811 27.2352 142.217 27.2352 142.569 27.3978L149.317 30.8384L153.219 25.9349L150.509 16.6424C150.32 15.9922 150.672 15.2878 151.295 15.044L158.991 12.091C159.533 11.8743 160.156 12.0639 160.509 12.5245L166.687 20.6249L173.679 21.4376L175.25 14.9627C175.359 14.5835 175.603 14.2584 175.982 14.0687C176.334 13.9062 176.768 13.9062 177.12 14.0687L187.12 19.0807C187.445 19.2432 187.689 19.5412 187.797 19.8934L190.507 29.4297L198.691 36.5548L203.839 34.4958C204.381 34.2791 205.005 34.4416 205.384 34.9293L213.839 45.9826C214.083 46.3077 214.164 46.7141 214.083 47.1205L212.267 54.1643L217.85 65.1093L225.166 68.7125C225.491 68.8751 225.735 69.1731 225.844 69.5253L229.556 82.3938C229.746 83.0711 229.394 83.7484 228.743 83.9922L223.676 85.8615L224.218 95.6416L230.532 103.796C230.776 104.121 230.857 104.528 230.776 104.934L228.337 114.714C228.228 115.093 227.957 115.418 227.605 115.581C227.253 115.744 226.819 115.744 226.467 115.581L219.719 112.14L215.817 117.044L216.847 120.566C216.847 120.566 216.847 120.647 216.874 120.674L218.527 126.309C218.717 126.959 218.364 127.664 217.741 127.908L210.045 130.861C209.883 130.915 209.72 130.942 209.557 130.942V130.969ZM194.328 118.778C194.328 118.778 194.436 118.778 194.49 118.778L203.189 119.78C203.541 119.834 203.867 119.997 204.083 120.295L210.018 128.07L215.654 125.903L214.327 121.379C214.327 121.379 214.327 121.352 214.327 121.324L213.107 117.125C212.999 116.719 213.08 116.258 213.351 115.933L218.337 109.648C218.717 109.16 219.421 108.998 219.963 109.296L226.196 112.465L228.093 104.907L221.914 96.9149C221.752 96.6981 221.643 96.4543 221.643 96.1834L221.02 85.0217C220.993 84.4527 221.345 83.9109 221.887 83.7213L226.711 81.9332L223.486 70.7986L216.305 67.2496C216.061 67.1141 215.844 66.9245 215.709 66.6535L209.72 54.8687C209.584 54.5707 209.53 54.2456 209.612 53.9476L211.4 47.0663L203.948 37.3404L198.962 39.3181C198.501 39.5078 197.986 39.3994 197.607 39.1014L188.502 31.2177C188.312 31.0552 188.176 30.8384 188.095 30.5946L185.439 21.2209L177.445 17.2114L175.982 23.1986C175.819 23.8488 175.196 24.2823 174.546 24.201L165.847 23.1986C165.495 23.1444 165.17 22.9819 164.953 22.6839L164.736 22.3859C164.736 22.3859 164.709 22.3588 164.682 22.3317L159.045 14.9086L153.409 17.0759L155.983 25.8536C156.092 26.26 156.01 26.7205 155.739 27.0456L150.753 33.3309C150.374 33.8185 149.669 33.9811 149.127 33.6831L142.895 30.5133L140.998 38.0719L147.176 46.0639C147.339 46.2807 147.447 46.5245 147.447 46.7954L148.07 57.9571C148.098 58.5261 147.745 59.0679 147.203 59.2575L142.38 61.0456L145.604 72.1802L152.786 75.7292C153.029 75.8647 153.246 76.0543 153.382 76.3252L159.398 88.1101C159.533 88.4081 159.587 88.7332 159.506 89.0312L157.718 95.9125L165.197 105.638L170.156 103.661C170.617 103.471 171.131 103.579 171.511 103.877L180.589 111.761C180.779 111.924 180.914 112.14 180.995 112.384L183.678 121.758L191.672 125.767L193.108 119.78C193.244 119.184 193.786 118.778 194.382 118.778H194.328Z" fill="#3C3C3C"/>
<path d="M195.032 103.038C194.68 103.038 194.3 103.037 193.948 103.01C191.997 102.875 190.019 102.414 187.986 101.656C182.079 99.4072 176.036 94.5578 170.968 87.9746C162.73 77.2192 158.449 63.6463 160.102 53.4057C160.454 51.2383 161.05 49.2877 161.917 47.5539C162.378 46.5786 162.947 45.6846 163.652 44.8176C167.906 39.4535 175.114 38.4511 182.946 42.1356C188.311 44.6551 193.514 49.0981 198.04 55.0041C205.79 65.1363 210.044 77.6798 209.15 87.7578C208.771 92.0112 207.497 95.506 205.384 98.161C202.836 101.358 199.286 103.038 195.059 103.038H195.032ZM174.03 42.5419C170.643 42.5419 167.771 43.8423 165.711 46.4431C165.142 47.1746 164.681 47.9061 164.275 48.7188C163.516 50.2089 163.001 51.9156 162.703 53.812C161.159 63.3754 165.223 76.1626 173.055 86.3762C177.824 92.5801 183.434 97.1315 188.907 99.1905C190.696 99.8678 192.43 100.274 194.11 100.383C197.904 100.626 201.075 99.2989 203.297 96.5355C205.085 94.2869 206.169 91.2526 206.495 87.5411C207.335 78.2216 203.188 66.0845 195.926 56.6296C191.672 51.0487 186.767 46.8766 181.808 44.5467C179.016 43.2463 176.388 42.5961 174.03 42.5961V42.5419Z" fill="#3C3C3C"/>
<path d="M207.85 88.95C207.66 88.95 207.443 88.8958 207.28 88.8145C201.915 86.295 196.712 81.852 192.159 75.946C184.409 65.8138 180.155 53.2703 181.076 43.1923C181.13 42.515 181.699 41.9731 182.404 41.9731C183.136 41.9731 183.732 42.5692 183.732 43.3006C183.732 43.3006 183.732 43.3819 183.732 43.4361C182.865 52.8911 186.902 64.7301 194.273 74.3476C198.528 79.9014 203.405 84.0735 208.365 86.4305C208.825 86.6201 209.15 87.1078 209.15 87.6496C209.15 88.3811 208.554 88.9771 207.823 88.9771L207.85 88.95Z" fill="#3C3C3C"/>
<path d="M217.253 128.016C216.793 128.016 216.359 127.772 216.115 127.339C215.763 126.716 215.98 125.903 216.603 125.551L236.873 114.064L235.491 109.377C235.491 109.377 235.464 109.269 235.464 109.214C235.355 108.645 235.626 108.022 236.168 107.751C236.818 107.426 237.604 107.697 237.929 108.347C237.929 108.347 237.984 108.483 237.984 108.537C237.984 108.591 238.011 108.645 238.038 108.727L239.691 114.335C239.854 114.931 239.61 115.554 239.068 115.852L217.904 127.853C217.687 127.962 217.47 128.016 217.253 128.016Z" fill="#3C3C3C"/>
<path d="M151.783 17.5906C151.322 17.5906 150.888 17.3468 150.645 16.9133C150.292 16.2902 150.509 15.4775 151.132 15.1253L172.324 3.12371C172.324 3.12371 172.432 3.06953 172.486 3.04244L180.155 0.0894501C180.697 -0.127283 181.32 0.0623585 181.673 0.522916L187.905 8.73168C188.339 9.3006 188.23 10.1404 187.661 10.5739C187.092 11.0074 186.252 10.899 185.819 10.3301L180.182 2.90698L173.516 5.48068L152.433 17.4281C152.216 17.5364 152 17.5906 151.783 17.5906Z" fill="#3C3C3C"/>
<path d="M228.282 84.0734C227.821 84.0734 227.388 83.8296 227.144 83.3961C226.792 82.773 227.009 81.9603 227.632 81.6081L247.902 70.1213L244.65 58.8241L237.469 55.2751C237.225 55.1396 237.008 54.95 236.872 54.679L230.857 42.8942C230.721 42.5962 230.667 42.2711 230.748 41.9731L232.537 35.0918L225.057 25.3388L220.071 27.3165C219.611 27.5062 219.096 27.3978 218.716 27.0727L209.638 19.189C209.449 19.0265 209.313 18.8097 209.232 18.5659L206.576 9.19222L197.742 4.77629L177.174 16.4257C176.551 16.7779 175.738 16.5611 175.386 15.938C175.033 15.3149 175.25 14.5022 175.873 14.15L197.064 2.14841C197.444 1.93167 197.905 1.93167 198.311 2.12131L208.31 7.10617C208.636 7.26872 208.879 7.56673 208.988 7.91892L211.698 17.4823L219.882 24.5803L225.03 22.5213C225.572 22.3046 226.196 22.4671 226.575 22.9548L235.057 34.0081C235.301 34.3332 235.382 34.7396 235.301 35.146L233.485 42.1627L239.067 53.1077L246.384 56.7109C246.709 56.8735 246.98 57.1715 247.062 57.5237L250.774 70.3922C250.937 70.9882 250.693 71.6113 250.151 71.9093L228.987 83.9109C228.77 84.0192 228.553 84.0734 228.336 84.0734H228.282Z" fill="#3C3C3C"/>
<path d="M186.524 21.6002C186.063 21.6002 185.63 21.3564 185.386 20.9229C185.034 20.2998 185.251 19.4871 185.874 19.1349L207.065 7.10619C207.688 6.754 208.501 6.97073 208.853 7.59384C209.206 8.21694 208.989 9.02969 208.366 9.38188L187.175 21.4106C186.958 21.5189 186.741 21.5731 186.524 21.5731V21.6002Z" fill="#3C3C3C"/>
<path d="M204.327 37.0696C203.866 37.0696 203.433 36.8257 203.189 36.3923C202.836 35.7692 203.053 34.9564 203.677 34.6042L224.841 22.6026C225.464 22.2505 226.277 22.4672 226.629 23.0903C226.981 23.7134 226.765 24.5262 226.141 24.8783L204.977 36.8799C204.76 36.9883 204.544 37.0425 204.327 37.0425V37.0696Z" fill="#3C3C3C"/>
<path d="M212.782 48.123C212.321 48.123 211.888 47.8792 211.644 47.4457C211.292 46.8226 211.509 46.0098 212.132 45.6576L233.296 33.6561C233.919 33.3039 234.732 33.5206 235.084 34.1437C235.437 34.7668 235.22 35.5796 234.597 35.9318L213.433 47.9333C213.216 48.0417 212.999 48.0959 212.782 48.0959V48.123Z" fill="#3C3C3C"/>
<path d="M224.543 71.2049C224.082 71.2049 223.649 70.9611 223.405 70.5277C223.053 69.9045 223.269 69.0918 223.893 68.7396L245.084 56.738C245.707 56.3858 246.52 56.6026 246.872 57.2257C247.225 57.8488 247.008 58.6615 246.385 59.0137L225.193 71.0153C224.977 71.1237 224.76 71.1779 224.543 71.1779V71.2049Z" fill="#3C3C3C"/>
<path d="M229.502 105.936C229.041 105.936 228.608 105.693 228.364 105.259C228.012 104.636 228.228 103.823 228.852 103.471L250.043 91.4694C250.666 91.1172 251.479 91.334 251.831 91.9571C252.184 92.5802 251.967 93.3929 251.343 93.7451L230.152 105.747C229.936 105.855 229.719 105.909 229.502 105.909V105.936Z" fill="#3C3C3C"/>
<path d="M227.036 115.717C226.575 115.717 226.142 115.473 225.898 115.039C225.546 114.416 225.762 113.603 226.386 113.251L247.062 101.521L249.23 92.9054L243.051 84.9133C242.889 84.6966 242.78 84.4528 242.78 84.1819L242.211 74.158C242.184 73.4265 242.726 72.8034 243.458 72.7763C244.19 72.7763 244.813 73.291 244.84 74.0225L245.382 83.64L251.696 91.7946C251.94 92.1197 252.021 92.5261 251.94 92.9325L249.474 102.713C249.392 103.065 249.149 103.363 248.85 103.525L227.686 115.527C227.47 115.635 227.253 115.689 227.036 115.689V115.717Z" fill="#3C3C3C"/>
<path d="M142 29.8902C141.567 29.8902 141.133 29.6735 140.862 29.2671C140.483 28.644 140.672 27.8312 141.296 27.452L152.65 20.4894C153.273 20.1101 154.086 20.2998 154.466 20.9229C154.845 21.546 154.655 22.3587 154.032 22.738L142.678 29.7006C142.461 29.836 142.217 29.8902 142 29.8902Z" fill="#3C3C3C"/>
<path d="M162.132 61.294C163.378 62.5673 164.327 64.2199 164.218 66.306C164.246 66.7936 164.218 67.2813 164.083 67.7147L147.092 127.641C146.469 129.782 145.819 131.217 143.488 130.676C143.244 129.673 142.458 128.698 141.103 127.912L69.3731 86.5163C68.3434 85.9203 67.1239 85.5139 65.7961 85.2972C64.7122 83.8342 64.0889 81.9378 64.7664 79.635C65.3625 77.5219 80.5107 23.3387 81.1069 21.1443C82.1366 17.4869 85.4968 16.4845 89.3178 18.6789L160.208 59.5873C160.912 59.9936 161.563 60.5896 162.132 61.2669V61.294Z" fill="white"/>
<path d="M143.569 131.353V138.776C143.569 140.022 142.756 141.268 141.13 142.19L87.3659 173.237C85.74 174.185 83.5992 174.645 81.4313 174.645C79.2634 174.645 77.1497 174.185 75.4967 173.237L3.76652 131.841C2.1406 130.892 1.32764 129.673 1.32764 128.427V121.004C1.32764 122.25 2.1406 123.469 3.76652 124.417L75.4696 165.813C77.0955 166.762 79.2363 167.222 81.4042 167.222C83.5721 167.222 85.7129 166.762 87.3388 165.813L141.103 134.766C142.729 133.818 143.541 132.599 143.541 131.353H143.569Z" fill="#3C3C3C"/>
<path d="M143.487 130.703C143.541 130.919 143.569 131.136 143.569 131.353C143.569 132.599 142.756 133.845 141.13 134.766L87.3659 165.813C85.74 166.762 83.5992 167.222 81.4313 167.222C79.2634 167.222 77.1497 166.762 75.4967 165.813L3.76652 124.417C2.1406 123.469 1.32764 122.25 1.32764 121.004C1.32764 119.758 2.1406 118.511 3.76652 117.59L57.5303 86.5433C59.1562 85.5951 61.297 85.1345 63.4649 85.1345C64.2508 85.1345 65.0637 85.2158 65.8225 85.3513C67.1232 85.568 68.3698 85.9744 69.3995 86.5704L141.13 127.966C142.458 128.752 143.27 129.727 143.514 130.73L143.487 130.703ZM132.133 132.653C133.054 132.111 133.163 131.299 132.35 130.838L64.3592 91.6094C63.5462 91.1489 62.1371 91.203 61.2157 91.7449L37.9921 105.155C37.0708 105.697 36.9624 106.483 37.7754 106.97L105.766 146.199C106.579 146.66 107.961 146.605 108.909 146.064L132.133 132.653ZM76.0116 138.857C76.5536 138.559 76.6078 138.099 76.1471 137.828L52.3002 124.065C51.8396 123.794 51.0266 123.821 50.5117 124.119L36.1223 132.436C35.5804 132.734 35.5262 133.195 35.9868 133.466L59.8337 147.228C60.2944 147.499 61.0802 147.472 61.6222 147.147L76.0116 138.83V138.857Z" fill="white"/>
<path d="M132.35 130.838C133.136 131.299 133.054 132.111 132.133 132.653L108.909 146.064C107.961 146.605 106.579 146.66 105.766 146.199L37.7755 106.97C36.9625 106.51 37.0709 105.697 37.9923 105.155L61.2158 91.7449C62.1372 91.2031 63.5463 91.1489 64.3593 91.6094L132.35 130.838Z" fill="#ECECEC"/>
<path d="M76.1203 137.801C76.581 138.072 76.5268 138.532 75.9848 138.83L61.5954 147.147C61.0534 147.445 60.2676 147.472 59.8069 147.229L35.96 133.466C35.4994 133.195 35.5536 132.735 36.0955 132.437L50.4849 124.12C50.9998 123.822 51.8128 123.794 52.2735 124.065L76.1203 137.828V137.801Z" fill="#FBFBF9"/>
<path d="M107.121 147.825C106.389 147.825 105.685 147.662 105.088 147.337L37.0979 108.081C36.3391 107.621 35.9055 106.943 35.9055 106.158C35.9055 105.318 36.4204 104.532 37.3147 103.99L60.5382 90.5801C61.8932 89.7945 63.763 89.7403 64.9824 90.4446L132.973 129.673C133.732 130.107 134.165 130.811 134.165 131.597C134.165 132.437 133.65 133.249 132.756 133.764L109.506 147.174C108.774 147.581 107.934 147.798 107.094 147.798L107.121 147.825ZM38.9406 106.104L106.389 145.034C106.741 145.251 107.636 145.224 108.205 144.899L131.13 131.678L63.6817 92.7474C63.3294 92.5307 62.4351 92.5578 61.8661 92.8829L38.9406 106.104Z" fill="#3C3C3C"/>
<path d="M81.4044 168.55C78.9384 168.55 76.608 167.981 74.8195 166.951L3.11635 125.555C1.11105 124.39 0 122.765 0 121.004C0 119.243 1.13814 117.563 3.11635 116.426L56.8801 85.3785C59.2377 83.9969 62.7063 83.4279 66.0395 83.9969C67.557 84.2678 68.9119 84.7283 70.023 85.3785L141.753 126.775C143.406 127.723 144.436 128.969 144.761 130.378C144.842 130.676 144.87 131.001 144.87 131.326C144.87 133.087 143.731 134.739 141.753 135.904L87.9894 166.951C86.228 167.981 83.8704 168.55 81.4044 168.55ZM63.4651 86.4351C61.4598 86.4351 59.5629 86.8957 58.208 87.6813L4.41708 118.728C3.27894 119.379 2.62857 120.218 2.62857 121.004C2.62857 121.79 3.27894 122.629 4.41708 123.28L76.1202 164.676C77.4751 165.461 79.3991 165.922 81.3773 165.922C83.3555 165.922 85.2795 165.461 86.6345 164.676L140.425 133.629C141.563 132.978 142.214 132.139 142.214 131.353C142.214 131.245 142.214 131.109 142.187 131.001C142.024 130.324 141.401 129.646 140.425 129.077L68.7222 87.6813C67.8822 87.1937 66.8253 86.8415 65.6059 86.6247C64.9013 86.4893 64.1968 86.4351 63.4922 86.4351H63.4651Z" fill="#3C3C3C"/>
<path d="M60.5926 148.719C60.0777 148.719 59.5629 148.61 59.1564 148.367L35.3095 134.604C34.6863 134.252 34.334 133.629 34.334 132.979C34.334 132.274 34.7405 131.651 35.4721 131.272L49.8344 122.982C50.7829 122.44 52.0836 122.413 52.9508 122.928L76.7976 136.69C77.3938 137.042 77.7461 137.638 77.7461 138.289C77.7461 138.993 77.3396 139.616 76.6621 140.022L62.2727 148.34C61.7849 148.61 61.1888 148.773 60.6197 148.773L60.5926 148.719ZM37.7755 132.979L60.4842 146.091C60.4842 146.091 60.8094 146.091 60.9449 146.01L74.3316 138.289L51.6229 125.176C51.6229 125.176 51.2707 125.176 51.1623 125.23L37.8026 132.951L37.7755 132.979Z" fill="#3C3C3C"/>
<path d="M81.4044 175.973C78.9385 175.973 76.608 175.404 74.8195 174.374L3.11635 132.979C1.11105 131.814 0 130.188 0 128.427V121.004C0 120.273 0.596171 119.677 1.32784 119.677C2.0595 119.677 2.65567 120.273 2.65567 121.004V128.427C2.65567 129.213 3.30604 130.053 4.44418 130.703L76.1473 172.099C77.5022 172.884 79.4262 173.345 81.4044 173.345C83.3826 173.345 85.3066 172.884 86.6616 172.099L140.452 141.052C141.591 140.402 142.241 139.562 142.241 138.776V131.353C142.241 130.622 142.837 130.026 143.569 130.026C144.3 130.026 144.897 130.622 144.897 131.353V138.776C144.897 140.537 143.758 142.19 141.78 143.355L88.0165 174.402C86.2551 175.431 83.8975 176 81.4315 176L81.4044 175.973Z" fill="#3C3C3C"/>
<path d="M144.381 132.139C144.029 132.139 143.649 132.084 143.216 132.003C142.62 131.895 142.159 131.353 142.159 130.703C142.159 129.971 142.755 129.375 143.487 129.375C143.487 129.375 143.677 129.375 143.785 129.402C144.815 129.646 145.167 129.592 145.844 127.289L162.835 67.3626C162.917 67.0646 162.944 66.7395 162.917 66.3873C162.917 66.3331 162.917 66.2789 162.917 66.2519C162.998 64.816 162.429 63.4885 161.209 62.2152C161.209 62.2152 161.155 62.161 161.128 62.1339C160.64 61.5379 160.098 61.0774 159.556 60.7523L88.6934 19.8439C87.0403 18.8957 85.4686 18.6248 84.3305 19.0854C83.1923 19.5459 82.6775 20.6567 82.4336 21.5236L80.1844 29.5969C75.7673 45.4455 66.5537 78.3889 66.0931 80.0415C65.6053 81.6941 65.8763 83.157 66.906 84.5658C67.3396 85.1618 67.2041 85.9746 66.635 86.408C66.0389 86.8415 65.2259 86.706 64.7923 86.1371C63.2748 84.1052 62.8412 81.7483 63.5458 79.3371C64.0065 77.7116 73.22 44.7682 77.6371 28.9196L79.8863 20.8463C80.4554 18.8415 81.6748 17.3515 83.3278 16.6742C85.2518 15.8886 87.6365 16.2137 90.0212 17.5953L160.884 58.5037C161.697 58.9642 162.456 59.6144 163.133 60.4543C164.841 62.2152 165.654 64.1929 165.545 66.3602C165.572 66.9833 165.518 67.5794 165.356 68.1212L148.365 128.048C147.958 129.43 147.199 132.139 144.381 132.139Z" fill="#3C3C3C"/>
<path d="M90.3468 129.89C90.13 129.89 89.8862 129.836 89.6965 129.7L65.958 115.992C65.3348 115.64 65.118 114.827 65.4702 114.177C65.8225 113.554 66.6355 113.337 67.2859 113.689L91.0243 127.398C91.6476 127.75 91.8644 128.563 91.5121 129.213C91.2682 129.646 90.8346 129.863 90.3739 129.863L90.3468 129.89Z" fill="#3C3C3C"/>
<path d="M98.6393 134.685C98.4225 134.685 98.1786 134.631 97.9889 134.496L93.9512 132.166C93.3279 131.814 93.1111 131.001 93.4634 130.351C93.8157 129.728 94.6287 129.511 95.279 129.863L99.3167 132.193C99.94 132.545 100.157 133.358 99.8045 134.008C99.5606 134.441 99.127 134.658 98.6664 134.658L98.6393 134.685Z" fill="#3C3C3C"/>
<path d="M106.688 139.318C106.471 139.318 106.227 139.264 106.037 139.128L102 136.798C101.377 136.446 101.16 135.633 101.512 134.983C101.864 134.36 102.677 134.143 103.328 134.496L107.365 136.825C107.989 137.178 108.205 137.99 107.853 138.641C107.609 139.074 107.176 139.291 106.715 139.291L106.688 139.318Z" fill="#3C3C3C"/>
<path d="M54.4684 109.192C54.2516 109.192 54.0077 109.138 53.818 109.002L49.7803 106.672C49.157 106.32 48.9402 105.508 49.2925 104.857C49.6448 104.234 50.4578 104.017 51.1081 104.37L55.1458 106.7C55.7691 107.052 55.9859 107.865 55.6336 108.515C55.3897 108.948 54.9561 109.165 54.4955 109.165L54.4684 109.192Z" fill="#3C3C3C"/>
<path d="M62.516 113.825C62.2992 113.825 62.0553 113.771 61.8656 113.635L57.855 111.305C57.2317 110.953 57.0149 110.14 57.3672 109.49C57.7195 108.867 58.5325 108.65 59.1828 109.002L63.1934 111.332C63.8167 111.685 64.0335 112.497 63.6812 113.147C63.4373 113.581 63.0037 113.798 62.5431 113.798L62.516 113.825Z" fill="#3C3C3C"/>
<path d="M60.6197 105.643C60.4029 105.643 60.159 105.589 59.9694 105.453L55.9317 103.124C55.3084 102.771 55.0916 101.959 55.4439 101.308C55.7962 100.685 56.6091 100.469 57.2595 100.821L61.2972 103.151C61.9205 103.503 62.1373 104.316 61.785 104.966C61.5411 105.399 61.1075 105.616 60.6468 105.616L60.6197 105.643Z" fill="#3C3C3C"/>
<path d="M69.3456 110.655C69.1288 110.655 68.8849 110.601 68.6952 110.465L64.6575 108.135C64.0342 107.783 63.8174 106.97 64.1697 106.32C64.5491 105.697 65.335 105.48 65.9853 105.833L70.023 108.162C70.6463 108.515 70.8631 109.327 70.5108 109.978C70.2669 110.411 69.8333 110.628 69.3727 110.628L69.3456 110.655Z" fill="#3C3C3C"/>
<path d="M66.7982 102.094C66.5814 102.094 66.3375 102.04 66.1478 101.904L62.1101 99.5745C61.4869 99.2223 61.2701 98.4096 61.6223 97.7594C61.9746 97.1363 62.7876 96.9195 63.438 97.2717L67.4757 99.6016C68.0989 99.9538 68.3157 100.767 67.9634 101.417C67.7195 101.85 67.286 102.067 66.8253 102.067L66.7982 102.094Z" fill="#3C3C3C"/>
<path d="M75.4698 107.106C75.253 107.106 75.0091 107.052 74.8195 106.916L70.7818 104.587C70.1585 104.234 69.9417 103.422 70.294 102.771C70.6463 102.148 71.4592 101.932 72.1096 102.284L76.1473 104.614C76.7706 104.966 76.9873 105.779 76.6351 106.429C76.3912 106.862 75.9576 107.079 75.4969 107.079L75.4698 107.106Z" fill="#3C3C3C"/>
<path d="M78.044 115.667C77.8273 115.667 77.5834 115.613 77.3937 115.477L73.3831 113.147C72.7598 112.795 72.543 111.982 72.8953 111.332C73.2476 110.709 74.0605 110.492 74.7109 110.845L78.7215 113.174C79.3448 113.527 79.5616 114.339 79.2093 114.99C78.9654 115.423 78.5318 115.64 78.0711 115.64L78.044 115.667Z" fill="#3C3C3C"/>
<path d="M84.1949 112.145C83.9781 112.145 83.7342 112.091 83.5446 111.955L79.5069 109.626C78.8836 109.273 78.6668 108.461 79.0191 107.81C79.3985 107.187 80.1843 106.971 80.8347 107.323L84.8724 109.653C85.4957 110.005 85.7124 110.818 85.3602 111.468C85.1163 111.901 84.6827 112.118 84.222 112.118L84.1949 112.145Z" fill="#3C3C3C"/>
<path d="M86.743 120.706C86.5262 120.706 86.2823 120.652 86.0926 120.516L82.0549 118.186C81.4317 117.834 81.2149 117.021 81.5672 116.371C81.9195 115.748 82.7324 115.531 83.3828 115.884L87.4205 118.213C88.0437 118.566 88.2605 119.378 87.9083 120.029C87.6644 120.462 87.2308 120.679 86.7701 120.679L86.743 120.706Z" fill="#3C3C3C"/>
<path d="M92.8944 117.157C92.6776 117.157 92.4337 117.103 92.244 116.967L88.2334 114.637C87.6101 114.285 87.3934 113.472 87.7456 112.822C88.0979 112.199 88.9109 111.982 89.5612 112.335L93.5718 114.664C94.1951 115.017 94.4119 115.829 94.0596 116.48C93.8157 116.913 93.3822 117.13 92.9215 117.13L92.8944 117.157Z" fill="#3C3C3C"/>
<path d="M95.442 125.718C95.2252 125.718 94.9813 125.664 94.7916 125.528L90.7539 123.198C90.1307 122.846 89.9139 122.034 90.2661 121.383C90.6455 120.76 91.4314 120.543 92.0818 120.896L96.1195 123.226C96.7427 123.578 96.9595 124.39 96.6072 125.041C96.3633 125.474 95.9298 125.691 95.4691 125.691L95.442 125.718Z" fill="#3C3C3C"/>
<path d="M101.593 122.169C101.377 122.169 101.133 122.115 100.943 121.979L96.9053 119.649C96.282 119.297 96.0652 118.484 96.4175 117.834C96.7698 117.211 97.5828 116.994 98.2331 117.347L102.271 119.676C102.894 120.029 103.111 120.841 102.759 121.492C102.515 121.925 102.081 122.142 101.62 122.142L101.593 122.169Z" fill="#3C3C3C"/>
<path d="M104.14 130.757C103.923 130.757 103.68 130.703 103.49 130.595L99.4522 128.265C98.8289 127.912 98.6121 127.1 98.9644 126.449C99.3167 125.826 100.13 125.61 100.753 125.962L104.791 128.292C105.414 128.644 105.631 129.457 105.278 130.107C105.034 130.54 104.601 130.757 104.14 130.757Z" fill="#3C3C3C"/>
<path d="M110.292 127.208C110.075 127.208 109.831 127.154 109.641 127.018L105.604 124.688C104.98 124.336 104.763 123.524 105.116 122.873C105.495 122.25 106.281 122.033 106.931 122.386L110.969 124.716C111.592 125.068 111.809 125.88 111.457 126.531C111.213 126.964 110.779 127.181 110.319 127.181L110.292 127.208Z" fill="#3C3C3C"/>
<path d="M112.839 135.769C112.622 135.769 112.378 135.715 112.189 135.579L108.151 133.249C107.528 132.897 107.311 132.084 107.663 131.434C108.042 130.811 108.828 130.594 109.479 130.947L113.516 133.276C114.14 133.629 114.356 134.441 114.004 135.092C113.76 135.525 113.327 135.742 112.866 135.742L112.839 135.769Z" fill="#3C3C3C"/>
<path d="M118.99 132.22C118.773 132.22 118.529 132.166 118.34 132.03L114.329 129.7C113.706 129.348 113.489 128.535 113.841 127.885C114.194 127.262 115.007 127.045 115.657 127.398L119.668 129.727C120.291 130.08 120.508 130.892 120.155 131.543C119.911 131.976 119.478 132.193 119.017 132.193L118.99 132.22Z" fill="#3C3C3C"/>
<path d="M84.0058 64.5693L90.7921 68.0262L91.6785 66.287L86.9737 63.8904L88.2233 61.4385L92.5574 63.6463L93.4293 61.9356L89.0952 59.7279L90.3448 57.276L95.0211 59.658L95.9074 57.9189L89.1497 54.4765L84.0058 64.5693ZM92.3873 68.8387L94.4688 69.8991L96.2997 66.3067L97.8822 67.1128L97.976 71.6856L100.314 72.8766L100.159 67.8598C101.568 67.9491 102.704 67.2708 103.402 65.9023C104.426 63.8922 103.768 61.9411 101.466 60.7504L97.5312 58.746L92.3873 68.8387ZM97.157 64.6246L98.7263 61.5454L100.209 62.3007C101.457 62.9183 101.772 63.7793 101.235 64.7984C100.74 65.8035 99.88 66.0117 98.6397 65.3799L97.157 64.6246ZM101.395 73.4274L103.477 74.4877L105.308 70.8953L106.89 71.7014L106.984 76.2742L109.322 77.4652L109.167 72.4484C110.576 72.5377 111.712 71.8594 112.41 70.4909C113.434 68.4809 112.776 66.5297 110.474 65.339L106.539 63.3346L101.395 73.4274ZM106.165 69.2132L107.734 66.134L109.217 66.8893C110.465 67.5069 110.78 68.3679 110.243 69.387C109.748 70.3921 108.888 70.6003 107.648 69.9685L106.165 69.2132ZM122.185 77.6611C123.87 74.3896 122.798 71.4551 120.11 70.104C117.437 68.7245 114.447 69.5892 112.776 72.8679C111.105 76.1466 112.156 79.0881 114.836 80.4534C117.516 81.8187 120.521 80.9613 122.185 77.6611ZM114.914 73.9573C115.997 71.7974 117.619 71.1514 119.166 71.9572C120.741 72.7418 121.172 74.4337 120.075 76.5862C118.978 78.7388 117.356 79.3848 115.78 78.6002C114.234 77.7944 113.803 76.1026 114.914 73.9573ZM121.152 83.4911L123.233 84.5514L125.064 80.9591L126.647 81.7652L126.74 86.3379L129.078 87.529L128.924 82.5121C130.333 82.6014 131.469 81.9231 132.166 80.5546C133.191 78.5446 132.533 76.5935 130.23 75.4027L126.296 73.3983L121.152 83.4911ZM125.921 79.2769L127.491 76.1978L128.973 76.9531C130.221 77.5706 130.536 78.4316 129.999 79.4507C129.505 80.4559 128.644 80.664 127.404 80.0322L125.921 79.2769Z" fill="#3C3C3C"/>
</svg>
